<svg xmlns="http://www.w3.org/2000/svg" width="16" height="16" viewBox="0 0 16 16">
	<g fill="#1e6ec5">
			<g>
					<path d="M12.57 0c.304 0 .594.121.809.336l2.285 2.285c.214.213.335.506.335.807 0 .304-.12.594-.335.81L14.21 5.692l-.678.678-.645.645-.612.612-.294.293-.83.831-.261.26-.496.497-.463.463-.43.43-.397.397-.51.509-.387.388-.209.208-.446.446-.237.238-1.63 1.629-.305.305c-.125.126-.277.22-.445.277L1.506 15.94c-.202.067-.418.078-.625.028-.207-.048-.396-.153-.546-.304-.15-.149-.256-.338-.305-.546-.048-.206-.038-.423.029-.624l1.143-3.429c.056-.169.15-.32.276-.445L11.763.336c.214-.215.505-.336.808-.336zM2.454 11.26l-.167.168-1.143 3.428 3.429-1.143.166-.167c-.086-.086-.142-.197-.16-.315l-.008-.09v-.57H4c-.152 0-.297-.06-.404-.168-.107-.107-.167-.253-.167-.404v-.571h-.572c-.151 0-.297-.06-.404-.167l.001-.001zm7.712-7.713l-6.736 6.737h.57c.121 0 .239.039.335.109l.07.059c.106.107.166.253.166.404v.572h.572c.151 0 .297.059.404.166.107.108.167.254.167.405v.572l6.738-6.738-2.286-2.286zm2.406-2.404l-1.597 1.595 2.286 2.286 1.596-1.596-2.285-2.285z" transform="translate(-866 -185) translate(866 185)"/>
			</g>
	</g>
</svg>
