<svg xmlns="http://www.w3.org/2000/svg" width="16" height="16" viewBox="0 0 16 16">
    <g fill="none" fill-rule="evenodd">
        <g fill="#1E6EC5">
            <g>
                <path d="M9 0c.283 0 .554.113.754.314.2.198.313.469.313.753H13.8c.283 0 .554.113.754.313.2.199.313.47.313.753V3.2c0 .284-.113.555-.313.755-.2.199-.471.312-.754.312h-.533v9.6c0 .565-.225 1.109-.625 1.508-.4.401-.943.625-1.509.625h-6.4c-.565 0-1.108-.224-1.508-.625-.4-.399-.625-.943-.625-1.508v-9.6h-.533c-.283 0-.555-.113-.755-.312-.2-.2-.312-.471-.312-.755V2.133c0-.283.112-.554.312-.753.2-.2.472-.313.755-.313H5.8c0-.284.112-.555.312-.753.2-.2.472-.314.755-.314H9zm3.074 4.267H3.793l-.126.064v9.536c0 .283.112.554.312.755.2.198.471.311.754.311h6.4c.283 0 .555-.113.754-.311.2-.2.313-.472.313-.755V4.33l-.126-.064zm-6.809 1.6c.142 0 .277.055.377.155.1.1.157.237.157.378v6.4c0 .14-.057.277-.157.378-.1.1-.235.155-.377.155-.141 0-.277-.055-.377-.155-.1-.1-.156-.237-.156-.378V6.4c0-.14.056-.277.156-.378.1-.1.236-.155.377-.155zm2.667 0c.141 0 .277.055.377.155.1.1.156.237.156.378v6.4c0 .14-.056.277-.156.378-.1.1-.236.155-.377.155-.142 0-.277-.055-.377-.155-.1-.1-.156-.237-.156-.378V6.4c0-.14.056-.277.156-.378.1-.1.235-.155.377-.155zm2.667 0c.14 0 .276.055.376.155.1.1.157.237.157.378v6.4c0 .14-.056.277-.157.378-.1.1-.235.155-.376.155-.142 0-.278-.055-.378-.155-.1-.1-.156-.237-.156-.378V6.4c0-.14.056-.277.156-.378.1-.1.236-.155.378-.155zM13.8 2.133H2.067V3.2H13.8V2.133z" transform="translate(-1097 -185) translate(1097 185)"/>
            </g>
        </g>
    </g>
</svg>
